<svg width="32.000000" height="31.142578" viewBox="0 0 32 31.1426" fill="none" xmlns="http://www.w3.org/2000/svg" xmlns:xlink="http://www.w3.org/1999/xlink">
	<desc>
			Created with Pixso.
	</desc>
	<defs/>
	<path id="Vector" d="M32 15.66C32 7.01 24.83 0 16 0C7.16 0 0 7.01 0 15.66C0 23.48 5.85 29.96 13.5 31.14L13.5 20.19L9.43 20.19L9.43 15.66L13.5 15.66L13.5 12.21C13.5 8.28 15.88 6.12 19.54 6.12C21.29 6.12 23.12 6.42 23.12 6.42L23.12 10.28L21.1 10.28C19.11 10.28 18.49 11.48 18.49 12.72L18.49 15.66L22.93 15.66L22.22 20.19L18.49 20.19L18.49 31.14C26.14 29.96 32 23.48 32 15.66Z" fill="#A89D9D" fill-opacity="1.000000" fill-rule="nonzero"/>
</svg>
