<svg width="32.000000" height="31.331909" viewBox="0 0 32 31.3319" fill="none" xmlns="http://www.w3.org/2000/svg" xmlns:xlink="http://www.w3.org/1999/xlink">
	<desc>
			Created with Pixso.
	</desc>
	<defs/>
	<path id="Vector" d="M16 0C11.65 0 11.11 0.01 9.4 0.09C7.7 0.17 6.54 0.43 5.52 0.82C4.46 1.22 3.57 1.75 2.68 2.62C1.79 3.5 1.24 4.37 0.83 5.4C0.44 6.4 0.17 7.53 0.09 9.2C0.01 10.87 0 11.41 0 15.66C0 19.92 0.01 20.45 0.09 22.12C0.17 23.79 0.44 24.92 0.83 25.92C1.24 26.95 1.79 27.83 2.68 28.7C3.57 29.57 4.46 30.11 5.52 30.5C6.54 30.89 7.7 31.16 9.4 31.23C11.11 31.31 11.65 31.33 16 31.33C20.34 31.33 20.88 31.31 22.59 31.23C24.29 31.15 25.46 30.89 26.48 30.5C27.53 30.11 28.42 29.57 29.31 28.7C30.2 27.83 30.75 26.95 31.16 25.92C31.55 24.92 31.82 23.79 31.9 22.12C31.98 20.45 32 19.92 32 15.66C32 11.41 31.98 10.87 31.9 9.2C31.82 7.54 31.55 6.4 31.16 5.4C30.75 4.37 30.2 3.5 29.31 2.62C28.42 1.75 27.53 1.22 26.48 0.82C25.46 0.43 24.29 0.17 22.59 0.09C20.88 0.01 20.34 0 16 0ZM16 2.81C20.27 2.81 20.78 2.84 22.46 2.91C24.02 2.98 24.87 3.23 25.43 3.45C26.18 3.73 26.71 4.07 27.27 4.62C27.83 5.17 28.18 5.69 28.47 6.42C28.69 6.97 28.95 7.8 29.02 9.33C29.1 10.98 29.11 11.48 29.11 15.66C29.11 19.84 29.09 20.34 29.01 21.99C28.93 23.52 28.67 24.35 28.45 24.9C28.15 25.63 27.81 26.15 27.25 26.7C26.7 27.25 26.16 27.59 25.41 27.87C24.85 28.09 23.99 28.34 22.43 28.41C20.74 28.49 20.24 28.5 15.96 28.5C11.67 28.5 11.17 28.48 9.48 28.41C7.92 28.33 7.06 28.07 6.5 27.86C5.74 27.57 5.22 27.23 4.66 26.68C4.1 26.14 3.74 25.61 3.46 24.88C3.24 24.33 2.98 23.49 2.9 21.97C2.84 20.32 2.82 19.81 2.82 15.64C2.82 11.47 2.84 10.96 2.9 9.3C2.98 7.77 3.24 6.93 3.46 6.38C3.74 5.63 4.1 5.13 4.66 4.58C5.22 4.03 5.74 3.68 6.5 3.4C7.06 3.19 7.9 2.93 9.46 2.85C11.16 2.8 11.66 2.78 15.94 2.78L16 2.81ZM16 7.62C11.46 7.62 7.78 11.22 7.78 15.66C7.78 20.11 11.46 23.71 16 23.71C20.54 23.71 24.21 20.1 24.21 15.66C24.21 11.22 20.53 7.62 16 7.62ZM16 20.88C13.05 20.88 10.66 18.55 10.66 15.66C10.66 12.78 13.05 10.44 16 10.44C18.94 10.44 21.33 12.78 21.33 15.66C21.33 18.55 18.94 20.88 16 20.88ZM26.46 7.3C26.46 8.34 25.6 9.18 24.54 9.18C23.48 9.18 22.62 8.34 22.62 7.3C22.62 6.26 23.48 5.42 24.54 5.42C25.59 5.42 26.46 6.26 26.46 7.3Z" fill="#A89D9D" fill-opacity="1.000000" fill-rule="nonzero"/>
</svg>
