<svg width="43.000000" height="29.373657" viewBox="0 0 43 29.3737" fill="none" xmlns="http://www.w3.org/2000/svg" xmlns:xlink="http://www.w3.org/1999/xlink">
	<desc>
			Created with Pixso.
	</desc>
	<defs/>
	<path id="Vector" d="M42.1 4.58C41.85 3.7 41.37 2.89 40.71 2.23C40.04 1.58 39.21 1.11 38.29 0.87C34.94 0 21.5 0 21.5 0C21.5 0 8.05 0 4.69 0.87C3.78 1.11 2.95 1.58 2.28 2.24C1.62 2.89 1.14 3.7 0.89 4.58C0 7.86 0 14.68 0 14.68C0 14.68 0 21.51 0.89 24.78C1.14 25.67 1.62 26.48 2.28 27.13C2.95 27.78 3.78 28.25 4.7 28.49C8.05 29.37 21.5 29.37 21.5 29.37C21.5 29.37 34.94 29.37 38.3 28.49C39.21 28.25 40.04 27.78 40.71 27.13C41.38 26.48 41.85 25.67 42.1 24.78C43 21.51 43 14.68 43 14.68C43 14.68 43 7.86 42.1 4.58ZM17.1 20.88L17.1 8.48L28.34 14.68L17.1 20.88Z" fill="#A89D9D" fill-opacity="1.000000" fill-rule="nonzero"/>
</svg>
